<svg xmlns="http://www.w3.org/2000/svg" height="100" width="200" viewBox="-16.939005 -4.2743 146.80471 25.6458"><path d="M95.1331 12.9022c-.3066 0-.5462-.2374-.5462-.5609 0-.3173.2396-.5572.5462-.5572.305 0 .543.24.543.5572 0 .3235-.238.5609-.543.5609zm0-1.23c-.3687 0-.682.2842-.682.6691 0 .388.3133.6711.682.6711.3663 0 .678-.2832.678-.671 0-.385-.3117-.6691-.678-.6691" fill="#0c2f59"/><path d="M94.9905 12.295v-.2388h.159c.0812 0 .1685.0156.1685.1132 0 .1184-.0873.1256-.186.1256zm.25.093c.114-.0128.2005-.0728.2005-.2108 0-.1532-.0888-.2208-.2732-.2208h-.294v.7728h.1167v-.3348h.1351l.2041.3348h.1315l-.2207-.3412M15.0437 5.1721c.3405.0038.5735.1049.7627.1941.3942.187.8558.4022 1.4343.6818 0 .0025.932-.6644.9821-.6989.3183-.2151.6238-.0513.7228.1343.3481.657.9898 2.0194 1.3286 3.2663.039.1503-.008.3809-.242.4534-.1352.0379-.3672.0719-.6095.1025-.3381.0418-.3323.3156-.3323.4806 0 .2055.0028 1.58.0028 2.0508.0077.2886-.2125 1.2328-1.3033 1.2328h-2.4878c-.9413.0039-1.698-.7926-1.703-1.639-.001-.5567 0-4.4301.0013-4.8639.0044-.8384.7574-1.4043 1.4433-1.3948" fill="#0c2f59"/><path d="M11.1075 13.0698H3.0182v.8983H12.51s.3444-.7945.3444-1.6744l.003-6.0982c0-.4804.1956-1.2943 1.184-1.5094.0273-.006.055-.012.0834-.0172 2.8009-.6613 5.688-.0592 7.318.6424.2923.1425.3589-.0909.3503-.1906.0335-1.3704-1.0082-2.9331-2.9239-3.0269-1.5579-.036-2.421.5223-2.7372.6766-.027.0136-.0649.008-.1007-.0322-.2867-.2829-.8993-.7072-1.5887-.9033-.1032-.023-.1113-.1757.006-.188 1.4726-.1591 2.7644.0098 3.3009.0961.1244.0214.2189-.0511.1693-.1655-.0397-.0878-.0693-.1266-.1324-.2613-.1314-.283-.4778-.5812-.9186-.7048-1.1591-.3222-3.1322-.6005-4.8884-.6111-1.9779-.0124-4.0638.3822-4.5906.5023-.126.0267-.3031.0725-.3353.0775-.144.0292-.1782.1666-.1148.233.0378.042.1478.1343.2.1983.0651.082.0946.198-.0286.3195L3.4514 4.6153h2.5314c.1625-.0056.3176.144.3176.3308.0016.1678-.1347.3288-.3056.3288H2.723l-.9952.9054h4.257l.024-.002c.1675.002.2972.1722.2945.3318-.0013.1447-.1247.3231-.2945.3231l-.026.0028H.9985l-.9966.8985h8.5985l.0276.001c.1695 0 .301.1754.3018.3275.0027.176-.122.3335-.2955.3328H0v.8984h8.5914l.0259.002c.1971.002.3125.1796.3117.3412-.0014.1515-.1445.3125-.3157.3125H0v.9036h11.2432c.1872.0052.3061.1656.3009.3411-.0054.1523-.1314.3126-.2995.3126h-8.223v.9056h8.0859l.1719-.002c.151 0 .282.1882.282.3404 0 .153-.1336.3186-.286.3186h-.168M6.0397 16.175l-.001.9206s1.2155.0037 1.9088 0c1.709-.0136 2.8287-.9206 2.8287-.9206H6.0397m0-1.548l-.001.9005h5.4905c.253-.2581.5781-.7269.665-.8984l-6.1545-.0021m84.8246-2.5122c-.0627.004-.1231.0074-.1805.0101-.0576-.0027-.1174-.0033-.18-.01-.3405-.0306-.6097-.1523-.8558-.3411a1.9133 1.9133 0 01-.2054-.2001c-.3585-.4037-.5513-1.0918-.5973-1.6338-.1049-1.2674.1465-3.1193 1.703-3.2432.0398-.0038.0779-.0038.1184-.0038.004 0 .0106-.002.0171-.002.0067 0 .0116.002.0186.002.0373 0 .0774 0 .1151.0038 1.558.1239 1.8115 1.9758 1.707 3.2432-.0458.542-.2208 1.216-.5985 1.6338a2.2911 2.2911 0 01-.2048.2c-.248.189-.5385.3166-.857.3411zm3.7248-3.0494c-.0013-.0172-.0032-.0312-.0052-.0504-.0312-.6976-.2627-1.3233-.5899-1.8077-.6808-1.067-1.8743-1.6429-3.3102-1.6239-1.4347-.019-2.629.557-3.3107 1.624-.3265.4843-.5586 1.11-.5904 1.8076-.0014.0192-.0039.0332-.0053.0504-.1943 2.342 1.1702 3.9619 3.4976 4.1493a4.472 4.472 0 00.4088.0154c.1337.0013.2707-.004.4098-.0154 2.3266-.1874 3.6918-1.8073 3.4955-4.1493M79.1153 7.3227c0-.5792.0558-1.598.0558-1.598h-1.9105s.058 1.0188.058 1.598l-.004 4.1746c0 .5804-.054 1.5651-.054 1.5651h1.9105s-.0513-.9847-.0513-1.5651l-.0045-4.1746M67.9715 11.928c-.4004 0-.9224 0-1.3273.002a91.2369 91.2369 0 01-.028-2.0965l-.004-.1011h.002v-.0173h2.2035V8.677h-2.2c.0052-1.1175.0265-1.8519.0265-1.8519l2.7343-.0006V5.7234c-1.9098.007-4.6726 0-4.6726 0s.0404 1.0131.0404 1.5925v4.1667c0 .53-.0326 1.431-.0391 1.5785h4.8514l.0052-1.1637s-.9554.0306-1.5923.0306m-31.8095 0c-.3983 0-.9239 0-1.3281.002a109.39 109.39 0 01-.0293-2.0965l-.0013-.1011h.0013v-.0173h2.2033V8.677h-2.2c.006-1.1175.026-1.8519.026-1.8519l2.7359-.0006V5.7234c-1.9113.007-4.6723 0-4.6723 0s.0406 1.0131.0406 1.5925v4.1667c0 .53-.0333 1.431-.039 1.5785h4.8515l.004-1.1637s-.9555.0306-1.5925.0306m38.0532-2.8127l2.1053-3.3906h-1.459l-.0106.0324c-.4424.7623-.9922 1.6865-1.2116 2.0257l-.0844.1357-1.2215-2.1938H70.141l2.1145 3.7975-2.203 3.5402h1.451c.9374-1.6058 1.4235-2.3432 1.4235-2.3432l1.3074 2.3432h2.185l-2.2042-3.947m10.8527 2.9503c-1.6983 0-2.6133-1.2481-2.5674-2.7848.0412-1.3379.6517-2.4756 2.1097-2.573.5595-.0372 1.0142.059 1.7981.269l-.0798-1.1467s-.6642-.2121-1.6152-.2484c-1.2095-.0459-2.3046.1866-3.1776.9927-.7774.714-1.2408 1.7708-1.2408 2.7962 0 1.135.4668 2.1803 1.3424 2.905.9111.7693 1.8892.9442 3.0522.9442.762 0 1.21-.051 1.9502-.2525l-.1084-1.125c-.1601.053-.6953.2233-1.4634.2233M60.5585 4.623h2.126l.0596.491c.4743 4.9016.766 7.9519.766 7.9519h-2.2133l-.2189-3.0375-.2035-2.7144-1.8753 5.7471c-.4945.0013-1.1844 0-1.1844 0s-.5939-2.042-.7019-2.326l-1.074-3.4477s-.166 1.9191-.2286 2.739a1202.5754 1202.5754 0 01-.2446 3.0395h-1.6519s.6764-6.865.7274-7.2823c.0516-.4296.1324-1.1606.1324-1.1606h2.1708l1.7982 4.9425 1.816-4.9425M49.313 12.1102a1.7587 1.7587 0 01-.177.0086c-.0594-.0006-.1178-.0006-.1804-.0086-.3409-.0312-.6072-.151-.8534-.3398-.0706-.0551-.137-.1243-.205-.1974-.3558-.4016-.5488-1.0873-.5944-1.6298-.105-1.2593.1484-3.1026 1.6973-3.2258.0396-.0015.0778-.0048.1168-.0048.0057 0 .012-.0028.019 0 .004-.0028.0116 0 .0158 0 .0383 0 .0779.0033.1174.0048 1.5481.1232 1.8024 1.9665 1.6957 3.2258-.0443.5425-.2196 1.2128-.5948 1.6298-.068.0731-.1354.1423-.2044.1974-.2448.1888-.5337.3152-.8526.3398zm3.7111-3.034c-.002-.0174-.0057-.0347-.0066-.0486-.0302-.6995-.2608-1.3206-.5882-1.8033-.6764-1.0632-1.8648-1.6349-3.2934-1.6157-1.4321-.0192-2.6203.5525-3.2976 1.6157-.3238.4827-.556 1.1038-.5869 1.8033-.0005.014-.0045.0312-.0045.0485-.1961 2.3313 1.164 3.9444 3.4804 4.1314a6.048 6.048 0 00.4086.0124c.132 0 .268-.0031.4069-.0124 2.3147-.187 3.6758-1.8 3.4813-4.1314m-25.9948.3936l.9186-2.7332.0547-.161.9617 2.8942zm5.4084 3.5914c-.0648-.151-.4578-1.0811-.746-1.8319l-2.481-6.6062h-1.9316s-.549 1.5493-.6282 1.8046l-1.8116 5.1215c-.2353.655-.5658 1.5133-.5658 1.5133h1.5763s.4459-1.4235.538-1.681l.243-.7107h2.732l.371 1.0832c.079.2028.4014 1.2911.4076 1.3072h2.2963m9.535-4.0946c-.2844.1469-.927.1062-1.2445.0876l.0243-2.0983.1772-.0112c.5848-.0468 1.0115.0322 1.1866.1114.2627.1154.4157.361.43.7763.0222.618-.2129.9486-.5736 1.1342zm3.371 4.096c-.4564-.6557-.6249-.9263-.9758-1.4058l-1.3154-2.044c.6331-.3125 1.2276-.8365 1.3181-1.933.0557-.6858-.3106-1.2534-.5285-1.4462-.3168-.282-.6246-.3963-1.0627-.45-.3525-.0454-.6059-.048-.8173-.0607h-3.0983s.0365 1.0137.0365 1.5942v4.1489c0 .5824-.0365 1.5952-.0365 1.5952h1.906s-.0558-1.0128-.0558-1.5952l.0142-1.3305s.415 0 .707.0033l1.2054 2.2096c.162.2812.3964.6337.4518.7141h2.2512" fill="#0c2f59"/><path d="M109.8254 1.8428l-.0801-.0366.0197-.0436.217.0977-.0208.0438-.0803-.036-.1053.2355-.056-.0249.1058-.2359m.1982.0352l.0891.0428-.037.2407.0007.0007.1676-.177.0883.0436-.1344.2757-.0526-.0262.1109-.2272h-.0005l-.1853.1906-.0528-.0264.0368-.2632-.0013.0001-.111.2268-.0525-.0258.134-.2753m.6541 2.386l-.0062.0071c1.049 1.0544 1.7396 2.4765 1.8514 4.0764.2467 3.535-2.4178 6.601-5.9528 6.848-1.6605.1162-3.2187-.411-4.4286-1.3697l-.0064.007c1.2548 1.1707 2.9747 1.8384 4.823 1.7095 3.535-.2473 6.2-3.3139 5.9527-6.8484-.1259-1.7866-.9703-3.3509-2.233-4.43m-11.3724 7.2954c-.2034.1137-.25.2853-.1446.5495.0964.2406.2477.345.4094.2807.1295-.0515.1515-.1633.0976-.4529l-.0236-.1124c-.0525-.2854-.0616-.4079-.0269-.5304.0327-.1373.112-.2277.2324-.2756.2904-.116.5647.0623.7282.4717.1758.4414.0815.7733-.262.9168l-.0862-.2155c.239-.1043.2992-.3283.1717-.6483-.1048-.2621-.271-.3776-.4465-.3078-.1407.0568-.1746.1878-.1223.4848l.0202.124.019.1099c.038.221.042.2985.021.3925-.0284.1167-.1033.2025-.224.251-.2719.109-.5334-.0512-.6808-.4196-.1592-.3981-.074-.6948.2322-.8313l.0852.213m-.1814-2.3164l.9738-.82.0063.3026-.8248.6831.2676.295.5784-.0131.0054.238-1.6546.0367-.005-.238.6512-.0145.0891.001.0847-.0024-.0562-.0582-.0563-.0591-.7323-.7903-.0076-.3138.6803.753m.7326-2.5622l.638.2236-.0789.225-.6375-.2248-1.1437.3451.0963-.2734.7098-.198.0874-.0245c.0354-.011.0584-.0145.1207-.0275a1.705 1.705 0 01-.1268-.1634l-.438-.592.0909-.2608.6818.9707m1.12-3.0371l-.3495.4275 1.0437.8542-.251.307-1.0442-.855-.3484.4255-.2363-.194.949-1.1584.2367.1932m2.2328-1.5681l-.835.488.1778.3045.767-.4478.143.2442-.767.4481.2064.3518.8512-.498.1537.264-1.1929.6979-.8366-1.4283 1.178-.6884.1544.264m2.2568-.2106c-.0904-.1516-.1263-.2186-.1782-.3364-.0155.1178-.031.2055-.0704.3763l-.069.3152.4806-.0768zm.946.853l-.4332.0278-.2135-.3576-.6673.1065-.0934.4075-.4123.1062.4355-1.8084.4074-.0647.9769 1.5827m2.658.5295l-.3487-.1327.1326-.4916a6.8228 6.8228 0 01.0655-.237 6.5802 6.5802 0 01.0692-.2439c.021-.0667.0419-.1359.0638-.2072l.0398-.1178a6.288 6.288 0 01-.2262.3618c-.0378.0596-.0732.1092-.1018.1507l-.4694.6578-.3013-.0793-.0943-.7908c-.0072-.0399-.011-.0976-.0163-.176-.0054-.1044-.0116-.1828-.0139-.2378a4.3962 4.3962 0 01-.0008-.2002l-.0409.1997c-.049.218-.0705.3127-.1371.5725l-.1373.533-.3665-.0575.4149-1.6184.5558.1076.079.7656c.0206.1798.0232.3299.0158.5431.0626-.1215.0849-.1625.1569-.274.0482-.0754.0899-.138.1273-.1956l.4357-.6254.5282.1792-.43 1.6142" fill="#1b458f"/><path d="M109.0317 8.585c.4768-.3214.8747-.4935 1.1212-.485.1463.0055.321.0492.321.2298 0 .1853-.1767.3408-.5223.4641-.3026.1086-.768.136-1.2756.0787.1396-.1264.2564-.221.3557-.2877zm-6.7125.5881c-.2973-.0204-.4422-.1407-.4422-.368 0-.0303.0202-.7538 1.6787-.8372.1892-.0098.4013-.0158.723.0208-.0137.0007-.1881.1605-.1881.1605l-.1035.0939c-.4005.3626-1.07.9705-1.668.93zm3.5883-2.7387c-.2011.176-.5983.5578-.9824.9263l-.4349.4168a5.9242 5.9242 0 00-1.0676-.0948c-.807 0-1.545.2217-1.8808.565-.1287.1318-.1922.2744-.1891.4251.0081.3894.4546.586.591.6368.7154.2671 1.3165.1899 1.9473-.2515.3484-.244.7686-.6362 1.0952-.9495.2546.059.5443.1335.854.2248l.2872.0843c-.3718.3638-.753.7501-1.1065 1.0617l-.0267.0243c-.492.4331-.8476.7465-1.3602.8605-.3617.0802-.6184.0048-.7023-.0479-.0078.0015-.0198.0162-.0198.0162.2975.2445.5788.3837 1.0625.342.461-.04.9927-.3308 1.5382-.8397l.7353-.7223.5146-.5114c0 .0034 1.0407.3055 1.0407.3055l.019.0056c-.0107 0-.6438.6269-.6438.6269l-.5534.5504c-.5675.5503-.8754.8363-1.2057 1.0706-.549.3884-1.0164.5906-1.4307.6184-.2129.0136-.5215-.001-.7792-.1517-.0117-.0024-.0272.0116-.0272.0116.28.2399.6232.5262 1.2128.5094.6682-.018 1.2586-.3394 2.1797-1.1857.4198-.385.8365-.8158 1.205-1.1967l.683-.693c.4508.1007.853.1408 1.2984.1319.6485-.0126 1.2016-.3234 1.2091-.6777.0052-.262-.21-.4022-.3384-.4853-.1069-.0699-.3968-.2308-.7973-.2308-.486 0-.9928.2147-1.507.6374l-.3425.302c.0035-.0025-.1256-.0346-.1256-.0346l-.952-.2664c.2803-.2626.5197-.4877.7357-.6792.5207-.4631 1.0971-.6535 1.4336-.6755.245-.0158.6738.0054.8499.13.0083-.001.0195-.0189.0195-.0189-.4686-.4018-.8741-.4545-1.209-.4545-.3288 0-.8582.1055-1.5053.6068-.2643.2047-.6068.5468-.9663.9083 0-.0023-.4814-.148-.4814-.148l-.1165-.037s-.5055-.1533-.506-.1533c.011 0 .2886-.2719.2886-.2719.3409-.3342.6634-.6504.9147-.862.9134-.7686 1.488-.8689 1.8882-.8703.4384-.0017.786.0882 1.0343.2679.0075-.0012.0188-.0175.0188-.0175-.513-.4638-.8816-.612-1.5186-.6173-.559-.0038-1.2271.3075-1.88.878" fill="#1b458f"/><path d="M54.1133 16.8568s3.3388-2.7281 11.7674-2.7281c6.352 0 10.159 2.0292 17.5866 2.0292 6.6812 0 11.1404-2.2958 11.1404-2.2958s-3.9162 3.0558-11.7747 3.0558c-7.8586 0-10.3643-2.0563-18.1271-2.0563-7.7628 0-10.5926 1.9952-10.5926 1.9952" fill="#e41d25"/></svg>