<svg xmlns="http://www.w3.org/2000/svg" height="100" width="200" viewBox="-41.60715 -12.43625 360.5953 74.6175"><path d="M272.381 11.177h-2.086V5.864c0-2.762-2.24-5-5-5-2.764 0-5 2.238-5 5v5.313h-2.127c-2.762 0-5.002 2.238-5.002 5 0 2.761 2.24 4.998 5.002 4.998h2.127v22.916c0 2.763 2.236 5 5 5 2.76 0 5-2.237 5-5V21.175h2.086c2.762 0 5-2.237 5-4.998 0-2.762-2.241-5-5-5zM61.557 44.09V15.667c0-2.762 2.238-5.001 5-5.001s5.001 2.24 5.001 5.001V44.09c0 2.763-2.24 5.002-5.001 5.002-2.762 0-5-2.239-5-5.002zm69.429-32.915h-2.087V5.864c0-2.762-2.238-5-5-5s-5 2.238-5 5v5.312h-2.125c-2.763 0-5 2.239-5 5.001 0 2.761 2.236 5 5 5h2.125v22.914c0 2.763 2.238 5.002 5 5.002s5-2.239 5-5.002V21.177h2.087c2.763 0 5.001-2.239 5.001-5 0-2.763-2.238-5.002-5.001-5.002zm-25.139 2.168c-2.801-2.075-6.383-3.397-10.373-3.411-3.779-.014-6.947 1.141-9.486 2.753-.912-1.219-2.354-2.02-3.994-2.02-2.762 0-5 2.24-5 5.001V44.09c0 2.762 2.238 5 5 5s5.001-2.238 5.001-5v-21.7c.078-.101.15-.204.233-.302 1.64-1.91 5.242-2.126 8.245-2.155 1.65-.017 3.335.623 4.393 1.427.53.39.885.806 1.04 1.062.057.093.09.162.105.2v21.224c0 2.763 2.238 5.002 5 5.002 2.761 0 5.001-2.239 5.001-5.002V22.527c-.087-4.139-2.434-7.105-5.165-9.184zM164.662 37.2c-.002 0-.441.213-1.229.564-1.176.525-3.063 1.324-4.93 1.957-1.834.646-3.791 1.062-4.379 1.027-1.144.031-3.84-.549-5.715-2.059-1.475-1.213-2.763-2.766-3.285-5.691h21.25c.129 0 .254-.023.379-.037.125.01.244.037.371.037 2.483 0 4.5-2.017 4.5-4.5-.02-5.183-2.356-9.694-5.529-12.956-3.202-3.238-7.33-5.492-11.971-5.544-3.904.004-8.435 1.195-12.147 4.541-3.731 3.338-6.145 8.768-6.101 15.708-.072 7.194 3.094 12.604 7.026 15.557 3.936 2.992 8.116 3.91 11.225 3.941 3.416-.064 6.608-1.246 9.461-2.3 2.782-1.073 4.931-2.116 5-2.149 2.236-1.086 3.172-3.775 2.088-6.013-1.086-2.234-3.778-3.167-6.014-2.083zm-16.64-15.992c1.661-1.528 4.006-2.211 6.104-2.208 1.357-.051 3.73.944 5.526 2.829 1.179 1.202 2.074 2.663 2.562 4.171h-16.867c.569-2.336 1.578-3.767 2.675-4.792zM247.037 37.2c-.002 0-.441.213-1.229.564-1.176.525-3.063 1.324-4.93 1.957-1.834.646-3.791 1.062-4.379 1.027-1.144.031-3.84-.549-5.715-2.059-1.475-1.213-2.763-2.766-3.285-5.691h21.25c.129 0 .254-.023.379-.037.125.01.244.037.371.037 2.483 0 4.5-2.017 4.5-4.5-.02-5.183-2.356-9.694-5.529-12.956-3.202-3.238-7.33-5.492-11.971-5.544-3.904.004-8.435 1.195-12.147 4.541-3.731 3.338-6.146 8.768-6.103 15.708-.072 7.194 3.096 12.604 7.026 15.557 3.937 2.992 8.116 3.91 11.224 3.941 3.418-.064 6.609-1.246 9.461-2.3 2.783-1.073 4.932-2.116 5.002-2.149 2.235-1.086 3.17-3.775 2.086-6.013-1.083-2.234-3.775-3.167-6.011-2.083zm-16.64-15.992c1.662-1.528 4.006-2.211 6.104-2.208 1.357-.051 3.73.944 5.526 2.829 1.179 1.202 2.074 2.663 2.562 4.171h-16.867c.569-2.336 1.578-3.767 2.675-4.792zm-38.543-9.829c-4.074 0-4.974 1.974-6.013 3.119-.227.248-.433.515-.621.779-.201-2.576-2.334-4.608-4.961-4.608-2.762 0-5 2.237-5 4.999v28.426c0 2.761 2.238 4.998 5 4.998s5-2.237 5-4.998v-18.53c1.33-1.272 3.27-3.019 4.856-4.007 2.636-1.641 6.462-1.094 6.462-5.319.002-4.176-1.786-4.859-4.723-4.859zm24.032 4.288c0-2.763-2.24-5-5.002-5-2.763 0-5 2.238-5 5v22.958c0 .139.029.27.041.405-.19 1.112-.703 2.267-2.057 2.267-1.932 0-3.391-.896-3.956-1.414-.565-.518-3.485-1.555-4.663.047-1.177 1.603-1.443 3.968 1.084 6.265 1.555 1.413 4.944 3.203 7.864 3.203 4.487 0 10.854-3.481 11.562-9.688.078-.351.127-.711.127-1.084z" fill="#161482"/><path d="M45.749 21.375H31.617l9.993-9.993c1.17-1.172 1.17-3.071 0-4.243-1.17-1.171-3.071-1.171-4.241 0l-9.994 9.993V2.999C27.375 1.343 26.032 0 24.376 0c-1.658 0-3.001 1.343-3.001 2.999V17.13l-9.992-9.993c-1.172-1.171-3.073-1.171-4.243 0-1.171 1.172-1.171 3.073 0 4.243l9.992 9.993H3.001C1.343 21.373 0 22.716 0 24.372c0 1.658 1.343 3.001 3.001 3.001h14.131l-9.994 9.992c-1.17 1.172-1.17 3.071 0 4.243.585.586 1.353.878 2.121.878s1.536-.292 2.123-.878l9.993-9.993v14.133c0 1.656 1.343 3.002 3.001 3.002 1.656 0 2.999-1.346 2.999-3.002V31.617l9.992 9.993c.586.586 1.354.878 2.122.878.768 0 1.535-.292 2.122-.878 1.17-1.172 1.17-3.072 0-4.243l-9.992-9.993 14.13.002c1.658 0 3.001-1.346 3.001-3.001.001-1.657-1.343-3-3.001-3z" fill="#7D98CF"/><path d="M41.685 21.257h-9.563l5.908-5.907c1.17-1.172 1.17-3.07 0-4.242-1.172-1.172-3.071-1.172-4.242 0h-.002l-10.15 10.148H7.028c-1.658 0-2.999 1.343-2.999 2.999 0 1.656 1.341 3.001 2.999 3.001h16.175l10.847 10.85c.586.585 1.354.878 2.123.878.768 0 1.534-.292 2.119-.878 1.172-1.174 1.172-3.071.002-4.242l-6.606-6.605h9.997c1.658 0 3.001-1.346 3.001-3.001 0-1.658-1.343-3.001-3.001-3.001z" fill="#121586"/></svg>