<svg xmlns="http://www.w3.org/2000/svg" height="100" width="200" version="1.0" viewBox="-29.9247 -18.6715 259.3474 112.029"><g clip-rule="evenodd" fill-rule="evenodd"><path d="M11.747 10.463l12.264.008c1.103 0 1.524.281 2.137 1.104l2.737 3.698c.001.001-4.827-3.818-17.138-4.81" fill="#00334C"/><path d="M72.561 39.433H56.05c-6.892 0-10.374-1.352-13.733-5.754L30.542 17.854h7.725c7.396 0 11.541 3.634 11.541 3.634l-6.049-8.605C40.701 8.715 37.375 6.9 31.435 6.9h-20.46c-4.435 0-6.297-.576-8.731-3.867L0 0h30.62c10.836 0 15.331 3.379 21.193 11.321" fill="#00A5DB"/><path d="M38.395 67.456s-.005-11.074.018-12.764c.023-1.661.146-3.995.146-3.995s-.718 1.258-1.646 2.655c-.916 1.385-7.099 10.358-7.099 10.358s-6.763-9.655-7.377-10.534c-.613-.878-1.634-2.671-1.634-2.671s.092 1.925.151 3.303c.069 1.574.069 13.647.069 13.647h-4.782V44.896h5.34l8.27 11.697 8.15-11.697h5.175v22.561m52.43-4.49V44.886h4.819v24.556m3.578-13.348c-.045-7.45 4.353-11.752 12.498-11.752 5.414 0 8.806 1.766 8.837 1.778l.15.084-1.688 4.415-.206-.113c-.037-.02-2.989-1.872-6.955-1.872-5.214 0-7.752 2.43-7.752 7.437 0 5.354 2.622 7.522 8.24 7.437 4.526-.078 8.169-1.917 8.169-1.917v4.52s-3.175 1.968-8.396 1.968c-9.216-.002-12.86-4.276-12.897-11.985M170.66 67.46l-10.456-13.303-2.837-3.854s.188 1.671.207 4.566c.018 2.894.126 12.596.126 12.596h-4.776v-22.58h5.34l9.563 12.101 3.003 4.081s-.035-2.445-.109-3.945c-.123-2.507-.16-12.227-.16-12.227h4.777v22.564m-39.245.55c-6.036 0-8.187-3.803-8.187-7.362 0-3.881 2.168-6.311 2.256-6.397l13.517-.01v-.642c-.064-4.42-1.673-5.13-6.172-4.974-.861.027-3.959.37-6.521 1.333-.189-.509-1.598-4.211-1.598-4.211l.137-.04c2.893-.902 5.922-1.374 8.769-1.374 3.793 0 6.8.869 8.03 2.338 1.456 1.492 2.147 3.854 2.147 7.405l-.006 13.391h-4.76v-3.708c-.79 1.849-3.379 4.251-7.612 4.251m-3.007-9.984c-.142.204-.549 1.12-.549 2.379 0 1.706.754 3.734 4.319 3.734 4.017 0 6.822-2.365 6.822-6.113zm54.041 9.984c-6.036 0-8.183-3.803-8.183-7.362 0-3.881 2.16-6.311 2.246-6.397l13.528-.01v-.642c-.078-4.42-1.685-5.13-6.184-4.974-.855.027-3.953.37-6.517 1.333-.188-.509-1.602-4.211-1.602-4.211l.139-.04c2.891-.902 5.92-1.374 8.767-1.374 3.793 0 6.796.869 8.027 2.338 1.465 1.492 2.15 3.854 2.15 7.405l-.004 13.391h-4.756v-3.708c-.785 1.849-3.384 4.251-7.611 4.251m-3.012-9.984c-.137.204-.55 1.12-.55 2.379 0 1.706.756 3.734 4.325 3.734 4.01 0 6.818-2.365 6.818-6.113z" fill="#00334C"/><path d="M96.183 74.686c-1.968 0-4.008-.814-5.61-2.938l-9.579-12.851-1.839 1.95c-4.202 4.759-10.032 7.165-17.321 7.165-10.288 0-14.713-3.77-14.869-12.285-.146-7.556 4.027-11.386 11.985-11.386 6.027 0 9.34 2.979 9.34 8.396 0 2.759-.439 5.276-.439 5.276l-15.815.01c.022.736.397 2.073 1.14 3.033 1.496 1.958 4.283 2.866 8.575 2.866 5.794 0 10.988-2.316 14.639-6.526l1.986-2.169-8.008-10.333h6.173l4.815 6.581 5.02-6.581 6.342-.01-8.681 10.269 14.722 19.531M52 54.222h11.399c.042-.184.133-1.204.133-1.768 0-3.56-2.632-4.31-4.837-4.31-3.076 0-5.075.988-6.05 3.001-.338.696-.649 2.106-.645 3.077" fill="#00334C"/></g></svg>